# xmcd
#
# Track frame offsets:
#   150
#   14557
#   27625
#   39775
#   55305
#   71392
#   84195
#   94672
#   107597
#   123372
#   138050
#   155415
#   169025
#   181495
#   198997
#   211612
#
# Disc length: 3078 seconds
#
# Revision: 0
# Processed by: cddbd v1.5.2PL0 Copyright (c) Steve Scherf et al.
# Submitted via: GXTranscoder 2.0.1939
#
DISCID=c60c0410
DTITLE=MARC ARYAN - UN PETIT SLOW
DYEAR=1900
DGENRE=Latin
TTITLE0=UN PETIT SLOW
TTITLE1=LE TELEPHONE
TTITLE2=UN JOUR
TTITLE3=TU ES BIEN TROP BELLE
TTITLE4=UN PEU NAIF
TTITLE5=LE CLOCHER
TTITLE6=TU ME PARFUME TROP
TTITLE7=SI J AVAIS SU
TTITLE8=MAGALI
TTITLE9=LE TEMPS DU BOLERO
TTITLE10=SANS AMOUR
TTITLE11=AGNES
TTITLE12=TOI MA BOHEME
TTITLE13=C EST BIEN DOMAGE
TTITLE14=LA BOITE A MUSIQUE
TTITLE15=J AIME LES PETITES FEMMES
EXTD=
EXTT0=
EXTT1=
EXTT2=
EXTT3=
EXTT4=
EXTT5=
EXTT6=
EXTT7=
EXTT8=
EXTT9=
EXTT10=
EXTT11=
EXTT12=
EXTT13=
EXTT14=
EXTT15=
PLAYORDER=
